# xmcd CD database file generated by Grip 3.2.0
# 
# Track frame offsets:
#       182
#       29920
#       45535
#       62007
#       80692
#       81262
#       92652
#       113772
#       130842
#       147292
#       161180
#       176777
# 
# Disc length: 2495 seconds
# 
# Revision: 4
# Processed by: cddbd v1.5.2PL0 Copyright (c) Steve Scherf et al.
# Submitted via: Grip 3.2.0
# 
DISCID=a809bd0c
DTITLE=Jools Holland - World Of His Own
DYEAR=1990
DGENRE=Blues
TTITLE0=Architectural Number
TTITLE1=The Maiden's Lament
TTITLE2=Honey Dripper
TTITLE3=Thursday (In three movements - Awakening, Elevensies, Slumber)
TTITLE4=Harp Solo
TTITLE5=Biggy Wiggy
TTITLE6=Holy Cow
TTITLE7=In The Heat Of The Night
TTITLE8=Biggy Wiggy (Instrumental)
TTITLE9=We're Through
TTITLE10=Grand Hotel
TTITLE11=Danger Zone
EXTD=
EXTT0=
EXTT1=
EXTT2=
EXTT3=
EXTT4=
EXTT5=
EXTT6=
EXTT7=
EXTT8=
EXTT9=
EXTT10=
EXTT11=
PLAYORDER=
